<?xml version="1.0" encoding="UTF-8" ?>
<!DOCTYPE svg PUBLIC "-//W3C//DTD SVG 1.1//EN" "http://www.w3.org/Graphics/SVG/1.1/DTD/svg11.dtd">
<svg width="50pt" height="50pt" viewBox="0 0 50 50" version="1.1" xmlns="http://www.w3.org/2000/svg">
<g id="#3a3a3aff">
<path fill="#3a3a3a" opacity="1.00" d=" M 0.00 0.00 L 50.00 0.00 L 50.00 50.00 L 0.00 50.00 L 0.00 0.00 M 6.57 17.66 C 12.63 20.80 18.48 24.59 25.00 26.71 C 31.52 24.60 37.37 20.80 43.43 17.66 C 37.35 14.36 30.99 11.61 25.00 8.14 C 19.01 11.61 12.65 14.36 6.57 17.66 M 6.54 24.04 C 11.94 28.47 18.44 31.58 25.00 33.86 C 31.56 31.57 38.08 28.49 43.46 24.01 C 36.49 23.37 31.37 28.91 25.00 30.48 C 18.63 28.92 13.51 23.33 6.54 24.04 M 7.26 30.96 C 7.30 31.32 7.36 32.05 7.39 32.41 C 13.19 35.72 19.42 38.24 25.10 41.78 C 30.91 38.33 37.27 35.94 43.06 32.46 C 42.68 31.02 40.98 30.41 39.69 31.01 C 34.87 32.73 30.73 36.03 25.75 37.36 C 19.08 37.06 14.05 30.51 7.26 30.96 Z" />
<path fill="#3a3a3a" opacity="1.00" d=" M 25.23 11.29 C 29.49 13.62 33.87 15.72 38.12 18.06 C 33.79 20.15 29.49 22.32 25.19 24.47 C 21.21 21.91 16.30 20.85 12.80 17.57 C 16.77 15.15 21.07 13.36 25.23 11.29 Z" />
</g>
<g id="#fefefeff">
<path fill="#fefefe" opacity="1.00" d=" M 6.57 17.66 C 12.65 14.36 19.01 11.61 25.00 8.14 C 30.99 11.61 37.35 14.36 43.43 17.66 C 37.37 20.80 31.52 24.60 25.00 26.71 C 18.48 24.59 12.63 20.80 6.57 17.66 M 25.23 11.29 C 21.07 13.36 16.77 15.15 12.80 17.57 C 16.30 20.85 21.21 21.91 25.19 24.47 C 29.49 22.32 33.79 20.15 38.12 18.06 C 33.87 15.72 29.49 13.62 25.23 11.29 Z" />
<path fill="#fefefe" opacity="1.00" d=" M 6.54 24.04 C 13.51 23.33 18.63 28.92 25.00 30.48 C 31.37 28.91 36.49 23.37 43.46 24.01 C 38.08 28.49 31.56 31.57 25.00 33.86 C 18.44 31.58 11.94 28.47 6.54 24.04 Z" />
<path fill="#fefefe" opacity="1.00" d=" M 7.26 30.96 C 14.05 30.51 19.08 37.06 25.75 37.36 C 30.73 36.03 34.87 32.73 39.69 31.01 C 40.98 30.41 42.68 31.02 43.06 32.46 C 37.27 35.94 30.91 38.33 25.10 41.78 C 19.42 38.24 13.19 35.72 7.39 32.41 C 7.36 32.05 7.30 31.32 7.26 30.96 Z" />
</g>
</svg>
